<?xml version="1.0" encoding="UTF-8" standalone="no"?>
<!-- Created with Inkscape (http://www.inkscape.org/) -->

<svg
   width="19.741741mm"
   height="19.741741mm"
   viewBox="0 0 19.741741 19.741741"
   version="1.1"
   id="svg1"
   xml:space="preserve"
   xmlns:inkscape="http://www.inkscape.org/namespaces/inkscape"
   xmlns:sodipodi="http://sodipodi.sourceforge.net/DTD/sodipodi-0.dtd"
   xmlns="http://www.w3.org/2000/svg"
   xmlns:svg="http://www.w3.org/2000/svg"><sodipodi:namedview
     id="namedview1"
     pagecolor="#ffffff"
     bordercolor="#666666"
     borderopacity="1.0"
     inkscape:showpageshadow="2"
     inkscape:pageopacity="0.0"
     inkscape:pagecheckerboard="0"
     inkscape:deskcolor="#d1d1d1"
     inkscape:document-units="mm" /><defs
     id="defs1"><style
       id="style1">.cls-1{fill-rule:evenodd;}</style></defs><g
     inkscape:label="Ebene 1"
     inkscape:groupmode="layer"
     id="layer1"
     transform="translate(-50.983293,-56.328963)"><g
       id="g8"><rect
         style="fill:none;fill-opacity:0;stroke:none;stroke-width:0.102011;stroke-linecap:round;stroke-linejoin:round;stroke-opacity:0"
         id="bg-1-7"
         width="19.741739"
         height="19.741739"
         x="50.983295"
         y="56.328964" /><g
         style="clip-rule:evenodd;fill-rule:evenodd;image-rendering:optimizeQuality;shape-rendering:geometricPrecision;text-rendering:geometricPrecision"
         id="fg-4"
         transform="matrix(0.03765428,0,0,0.0328616,55.544911,57.798437)"><path
           d="M 236.39,323.85 H 37.57 c -0.44,-8.11 -0.21,-15.91 0.72,-23.41 11.11,-89.64 114.91,-89.27 91.19,-194.65 -7.85,34.34 -27.83,42.45 -58.03,38.37 L 53.21,161.91 C 33.71,180.89 6.32,147.52 24.29,126.97 61.83,87.29 73.21,62.45 86.83,52.01 92.02,48.04 98.41,48.22 98.1,40.68 97.96,37.48 95.13,32.87 92.65,31.46 91.51,20.97 91.18,10.48 92.65,0 c 16.98,6.81 32.24,18.51 45.05,32.68 l 1.09,-18.47 c 59.29,3.94 100.24,35.61 121.91,107 12.14,123.77 -17.94,136.13 -24.31,202.64 z M 45.32,338.54 h 191.36 c 8.76,0 15.92,7.2 15.92,15.92 0,8.72 -7.2,15.92 -15.92,15.92 H 45.32 c -8.72,0 -15.92,-7.16 -15.92,-15.92 0,-8.76 7.16,-15.92 15.92,-15.92 z M 16.47,478.38 h 249.06 c 9.06,0 16.47,7.41 16.47,16.47 0,9.06 -7.41,16.47 -16.47,16.47 H 16.47 C 7.41,511.32 0,503.91 0,494.85 0,485.79 7.41,478.38 16.47,478.38 Z m 216.41,-93.3 c 13.34,23.4 35.16,47.09 31.62,78.59 H 17.46 c -3.54,-31.5 21.22,-55.19 34.55,-78.59 z"
           id="path1-3" /></g></g></g></svg>
