<?xml version="1.0" encoding="UTF-8" standalone="no"?>
<!-- Created with Inkscape (http://www.inkscape.org/) -->

<svg
   width="19.741741mm"
   height="19.741739mm"
   viewBox="0 0 19.741741 19.741739"
   version="1.1"
   id="svg1"
   xml:space="preserve"
   xmlns:inkscape="http://www.inkscape.org/namespaces/inkscape"
   xmlns:sodipodi="http://sodipodi.sourceforge.net/DTD/sodipodi-0.dtd"
   xmlns="http://www.w3.org/2000/svg"
   xmlns:svg="http://www.w3.org/2000/svg"><sodipodi:namedview
     id="namedview1"
     pagecolor="#ffffff"
     bordercolor="#666666"
     borderopacity="1.0"
     inkscape:showpageshadow="2"
     inkscape:pageopacity="0.0"
     inkscape:pagecheckerboard="0"
     inkscape:deskcolor="#d1d1d1"
     inkscape:document-units="mm" /><defs
     id="defs1"><style
       id="style1">.cls-1{fill-rule:evenodd;}</style></defs><g
     inkscape:label="Ebene 1"
     inkscape:groupmode="layer"
     id="layer1"
     transform="translate(-50.983293,-29.8819)"><g
       id="g7"><rect
         style="fill:none;fill-opacity:0;stroke:none;stroke-width:0.102011;stroke-linecap:round;stroke-linejoin:round;stroke-opacity:0"
         id="bg-1-6"
         width="19.741739"
         height="19.741739"
         x="50.983295"
         y="29.881899" /><g
         style="clip-rule:evenodd;fill-rule:evenodd;image-rendering:optimizeQuality;shape-rendering:geometricPrecision;text-rendering:geometricPrecision"
         id="fg-1"
         transform="matrix(0.03811749,0,0,0.03289248,57.156769,31.351371)"><path
           d="M 48.01,216.67 C 46.86,262.89 36.36,352.02 24.8,381.88 H 169.2 C 155.75,348.01 144.63,259.47 143.07,216.67 Z M 59.46,132.8 h 75.08 c 4.91,0 8.93,4.06 8.93,8.93 0,4.88 -4.06,8.94 -8.93,8.94 H 59.46 c -4.87,0 -8.93,-4.02 -8.93,-8.94 0,-4.91 4.02,-8.93 8.93,-8.93 z m -26.24,55.91 h 127.56 c 4.91,0 8.93,4.04 8.93,8.94 0,4.89 -4.04,8.93 -8.93,8.93 H 33.22 c -4.89,0 -8.93,-4.02 -8.93,-8.93 0,-4.92 4.02,-8.94 8.93,-8.94 z m 13.12,-27.96 h 101.32 c 4.91,0 8.93,4.06 8.93,8.94 0,4.88 -4.05,8.93 -8.93,8.93 H 46.34 c -4.88,0 -8.93,-4.02 -8.93,-8.93 0,-4.92 4.02,-8.94 8.93,-8.94 z M 97,59.26 C 91.67,59.33 85.39,55.72 82.61,48.63 h -9.8 C 69.88,60.46 49.4,66.6 42.21,48.71 l -7.99,5.12 c -2.66,1.71 -3.25,1.8 -3.37,5.32 -0.05,1.68 0.23,3.5 0.9,4.83 14.3,13.97 21,35.19 21.98,58.74 h 86.54 c 0.98,-23.55 7.68,-44.77 21.98,-58.74 0.67,-1.33 0.95,-3.15 0.9,-4.83 -0.12,-3.52 -0.71,-3.61 -3.37,-5.32 l -7.99,-5.12 c -7.19,17.89 -27.67,11.75 -30.6,-0.08 h -9.8 C 108.61,55.72 102.33,59.33 97,59.26 Z M 97,0 c 9.64,0 17.46,7.82 17.46,17.46 0,4.99 -2.11,9.5 -5.47,12.69 14.91,2.67 27.09,10.3 32.9,20.3 -0.38,0.31 -0.77,0.58 -1.17,0.8 -1.66,0.95 -3.53,1.27 -5.36,1.09 a 11.24,11.24 0 0 1 -5.38,-2.03 c -1.71,-1.21 -2.99,-2.84 -3.43,-4.63 a 6.058,6.058 0 0 0 -5.87,-4.6 v -0.01 h -9.8 c -2.67,0 -4.94,1.74 -5.74,4.15 -0.87,2.07 -2.18,3.65 -3.65,4.74 -1.61,1.19 -3.37,1.78 -4.92,1.76 h -0.15 c -1.55,0.02 -3.31,-0.57 -4.91,-1.76 -1.55,-1.14 -2.91,-2.82 -3.78,-5.04 a 6.064,6.064 0 0 0 -5.62,-3.85 h -9.8 c -2.95,0 -5.41,2.11 -5.95,4.9 -0.5,1.68 -1.73,3.2 -3.35,4.34 a 11.24,11.24 0 0 1 -5.38,2.03 C 55.8,52.52 53.93,52.2 52.27,51.25 L 52.1,51.15 C 57.71,40.88 69.96,33 85.08,30.21 81.67,27.02 79.54,22.49 79.54,17.46 79.54,7.82 87.36,0 97,0 Z M 31.18,391.97 h 131.64 c 6.03,0 10.96,4.95 10.96,10.95 0,6 -4.96,10.96 -10.96,10.96 H 31.18 c -6,0 -10.96,-4.93 -10.96,-10.96 0,-6.02 4.93,-10.95 10.96,-10.95 z m -19.85,96.21 h 171.34 c 6.23,0 11.33,5.09 11.33,11.33 0,6.23 -5.1,11.33 -11.33,11.33 H 11.33 C 5.1,510.84 0,505.74 0,499.51 0,493.27 5.1,488.18 11.33,488.18 Z m 148.88,-64.19 c 9.17,16.1 24.19,32.39 21.75,54.07 H 12.01 c -2.44,-21.68 14.6,-37.97 23.77,-54.07 z"
           id="path1-2" /></g></g></g></svg>
