<?xml version="1.0" encoding="UTF-8" standalone="no"?>
<!-- Created with Inkscape (http://www.inkscape.org/) -->

<svg
   width="19.74173mm"
   height="19.741739mm"
   viewBox="0 0 19.74173 19.741739"
   version="1.1"
   id="svg1"
   xml:space="preserve"
   xmlns:inkscape="http://www.inkscape.org/namespaces/inkscape"
   xmlns:sodipodi="http://sodipodi.sourceforge.net/DTD/sodipodi-0.dtd"
   xmlns="http://www.w3.org/2000/svg"
   xmlns:svg="http://www.w3.org/2000/svg"><sodipodi:namedview
     id="namedview1"
     pagecolor="#ffffff"
     bordercolor="#666666"
     borderopacity="1.0"
     inkscape:showpageshadow="2"
     inkscape:pageopacity="0.0"
     inkscape:pagecheckerboard="0"
     inkscape:deskcolor="#d1d1d1"
     inkscape:document-units="mm" /><defs
     id="defs1"><style
       id="style1">.cls-1{fill-rule:evenodd;}</style></defs><g
     inkscape:label="Ebene 1"
     inkscape:groupmode="layer"
     id="layer1"
     transform="translate(-116.2406,-29.8819)"><g
       id="g5"><rect
         style="fill:none;fill-opacity:0;stroke:none;stroke-width:0.102011;stroke-linecap:round;stroke-linejoin:round;stroke-opacity:0"
         id="bg-1-1"
         width="19.741739"
         height="19.741739"
         x="116.2406"
         y="29.881899" /><g
         style="clip-rule:evenodd;fill-rule:evenodd;image-rendering:optimizeQuality;shape-rendering:geometricPrecision;text-rendering:geometricPrecision"
         id="fg-3"
         transform="matrix(0.24426509,0,0,0.24426509,138.10455,-50.493468)"><path
           d="m -58.452387,365.27138 h 18.707523 c 0.857042,0 1.557092,0.59052 1.557092,1.30615 v 10e-4 c 0,0.71563 -0.703253,1.30616 -1.557092,1.30616 h -18.707523 c -0.853837,0 -1.557091,-0.58785 -1.557091,-1.30616 v -10e-4 c 0,-0.71831 0.70005,-1.30615 1.557091,-1.30615 z m 9.353762,-30.20573 c 1.821412,0 3.296804,1.24024 3.296804,2.76969 0,1.15954 -0.84903,2.15227 -2.053694,2.5639 h 0.0032 c 0.855438,0.57438 1.674032,1.17029 2.442967,1.78503 l -4.571953,8.43555 c -0.360438,0.6672 -0.0096,1.45547 0.784952,1.75947 0.796167,0.30267 1.733306,0.008 2.095346,-0.65913 l 4.035301,-7.44819 c 4.647246,4.67311 6.111425,10.14121 0.134565,15.43176 h -12.334996 c -7.726185,-6.83748 -3.02127,-13.97494 4.921177,-19.30449 h 0.0032 c -1.204664,-0.41163 -2.053696,-1.40436 -2.053696,-2.5639 0,-1.52945 1.475392,-2.76969 3.296805,-2.76969 z m -7.519534,34.30176 c -0.176215,5.9564 -1.789374,11.76887 -3.56433,15.61739 h 22.167727 c -2.064907,-4.36641 -3.772582,-10.10086 -4.011272,-15.61739 z m -3.948797,17.09708 h 22.936661 c 1.050877,0 1.909521,0.72504 1.909521,1.60209 0,0.87705 -0.863449,1.60209 -1.909521,1.60209 h -22.936661 c -1.046071,0 -1.909519,-0.71966 -1.909519,-1.60209 0,-0.88109 0.858643,-1.60209 1.909519,-1.60209 z m -3.458601,14.07583 h 29.853863 c 1.08612,0 1.973598,0.74522 1.973598,1.65724 0,0.91203 -0.887478,1.65725 -1.973598,1.65725 h -29.853863 c -1.086119,0 -1.973598,-0.74522 -1.973598,-1.65725 0,-0.91202 0.887479,-1.65724 1.973598,-1.65724 z m 25.94031,-9.39062 c 1.598742,2.35405 4.21472,4.73903 3.790203,7.90959 h -29.61197 c -0.424515,-3.17056 2.543891,-5.55554 4.141031,-7.90959 z m -18.082766,-29.96897 h 14.138775 c 0.855439,0 1.555489,0.59321 1.555489,1.30615 0,0.71429 -0.706458,1.3075 -1.555489,1.3075 h -14.138775 c -0.849031,0 -1.555489,-0.58784 -1.555489,-1.3075 0,-0.71832 0.70005,-1.30615 1.555489,-1.30615 z"
           id="path1-33"
           style="stroke-width:0.146796" /></g></g></g></svg>
