<?xml version="1.0" encoding="UTF-8" standalone="no"?>
<!-- Created with Inkscape (http://www.inkscape.org/) -->

<svg
   width="19.741737mm"
   height="19.741741mm"
   viewBox="0 0 19.741737 19.741741"
   version="1.1"
   id="svg1"
   xml:space="preserve"
   xmlns:inkscape="http://www.inkscape.org/namespaces/inkscape"
   xmlns:sodipodi="http://sodipodi.sourceforge.net/DTD/sodipodi-0.dtd"
   xmlns="http://www.w3.org/2000/svg"
   xmlns:svg="http://www.w3.org/2000/svg"><sodipodi:namedview
     id="namedview1"
     pagecolor="#ffffff"
     bordercolor="#666666"
     borderopacity="1.0"
     inkscape:showpageshadow="2"
     inkscape:pageopacity="0.0"
     inkscape:pagecheckerboard="0"
     inkscape:deskcolor="#d1d1d1"
     inkscape:document-units="mm" /><defs
     id="defs1"><style
       id="style1">.cls-1{fill-rule:evenodd;}</style></defs><g
     inkscape:label="Ebene 1"
     inkscape:groupmode="layer"
     id="layer1"
     transform="translate(-85.207254,-56.328963)"><g
       id="g9"><rect
         style="fill:none;fill-opacity:0;stroke:none;stroke-width:0.102011;stroke-linecap:round;stroke-linejoin:round;stroke-opacity:0"
         id="bg-1-9"
         width="19.741739"
         height="19.741739"
         x="85.207253"
         y="56.328964" /><path
         class="cls-1"
         d="m 93.329971,63.134843 a 2.1719193,2.1719193 0 1 1 3.495247,0 z m 3.72359,0.41208 a 0.75406488,0.75406488 0 0 1 0.655291,0.743447 v 0 a 0.75512694,0.75512694 0 0 1 -0.702026,0.749813 h -3.8606 A 0.75406488,0.75406488 0 0 1 92.445272,64.29037 v 0 a 0.75406488,0.75406488 0 0 1 0.655284,-0.743447 z m -0.792302,1.906403 c 0.09665,1.547427 0.637238,2.7688 1.99137,3.382671 v 0.568204 h -6.349013 v -0.568204 c 1.274476,-0.40358 1.877728,-1.593094 1.989242,-3.382671 z m 2.024293,4.359771 a 1.5283089,1.5283089 0 0 1 1.345636,1.511315 v 0.02336 H 90.52506 v -0.02336 a 1.5283089,1.5283089 0 0 1 1.346698,-1.511315 h 0.03286 6.347957 z m 1.328636,1.945701 a 1.2744759,1.2744759 0 0 1 1.006842,0.967538 H 89.535216 a 1.2744759,1.2744759 0 0 1 1.005777,-0.967538 z"
         id="fg-5"
         style="stroke-width:0.106206" /></g></g></svg>
