<?xml version="1.0" encoding="UTF-8" standalone="no"?>
<!-- Created with Inkscape (http://www.inkscape.org/) -->

<svg
   width="19.741737mm"
   height="19.741747mm"
   viewBox="0 0 19.741737 19.741747"
   version="1.1"
   id="svg1"
   xml:space="preserve"
   xmlns:inkscape="http://www.inkscape.org/namespaces/inkscape"
   xmlns:sodipodi="http://sodipodi.sourceforge.net/DTD/sodipodi-0.dtd"
   xmlns="http://www.w3.org/2000/svg"
   xmlns:svg="http://www.w3.org/2000/svg"><sodipodi:namedview
     id="namedview1"
     pagecolor="#ffffff"
     bordercolor="#666666"
     borderopacity="1.0"
     inkscape:showpageshadow="2"
     inkscape:pageopacity="0.0"
     inkscape:pagecheckerboard="0"
     inkscape:deskcolor="#d1d1d1"
     inkscape:document-units="mm" /><defs
     id="defs1"><style
       id="style1">.cls-1{fill-rule:evenodd;}</style></defs><g
     inkscape:label="Ebene 1"
     inkscape:groupmode="layer"
     id="layer1"
     transform="translate(-120.3688,-129.1564)"><g
       id="g16"><rect
         style="fill:none;fill-opacity:0;stroke:none;stroke-width:0.102011;stroke-linecap:round;stroke-linejoin:round;stroke-opacity:0"
         id="bg-1-5-0"
         width="19.741739"
         height="19.741739"
         x="120.3688"
         y="129.1564" /><g
         style="clip-rule:evenodd;fill:#ffffff;fill-opacity:1;fill-rule:evenodd;stroke:none;stroke-opacity:1;image-rendering:optimizeQuality;shape-rendering:geometricPrecision;text-rendering:geometricPrecision"
         id="fg-6-8"
         transform="matrix(0.04000019,0,0,0.03190244,175.3407,129.44858)"><path
           d="m -1031.3847,430.77643 c 13.9429,24.48464 36.77815,49.26638 33.07984,82.23357 h -258.47174 c -3.7086,-32.96719 22.2001,-57.74893 36.143,-82.23357 z m -172.2736,-269.7716 h 152.2761 c 7.6937,0 13.9941,6.33117 13.9941,13.99415 0,7.66298 -6.3312,13.99415 -13.9941,13.99415 h -152.2761 c -7.663,0 -13.9941,-6.30044 -13.9941,-13.99415 0,-7.69371 6.3004,-13.99415 13.9941,-13.99415 z m 52.1144,-123.355484 h 50.1474 v 57.666972 c 0,3.964668 3.2578,7.212212 7.2122,7.212212 h 24.915 c 3.9544,0 6.4746,-3.309011 7.2122,-7.212212 l 10.9515,-57.666972 h 44.6255 l -17.8768,87.898854 c -4.1081,12.89797 -13.9327,19.4238 -29.0435,20.11019 h -153.4542 c -13.2463,-0.28685 -20.8273,-6.98683 -23.0914,-20.11019 l -18.6145,-87.898854 h 46.736 l 10.9515,57.666972 c 0.7274,3.903201 3.2475,7.212212 7.202,7.212212 h 24.9149 c 3.9544,0 7.2122,-3.247544 7.2122,-7.212212 z m -50.8236,166.731204 c -1.5367,61.92874 -7.9395,122.34126 -23.4294,162.34651 h 196.5533 c -18.0203,-45.38367 -25.253,-104.99712 -27.3327,-162.34651 z m -25.2632,177.69295 h 200.2209 c 9.1587,0 16.6577,7.54004 16.6577,16.65775 v 0.0102 c 0,9.11771 -7.54,16.65775 -16.6577,16.65775 h -200.2209 c -9.1177,0 -16.6577,-7.49906 -16.6577,-16.65775 v -0.0102 c 0,-9.15869 7.499,-16.65775 16.6577,-16.65775 z m -30.1806,146.32392 h 260.58213 c 9.47629,0 17.23147,7.75518 17.23147,17.22121 v 0.0102 c 0,9.47627 -7.75518,17.22121 -17.23147,17.22121 h -260.58213 c -9.4763,0 -17.2315,-7.74494 -17.2315,-17.22121 v -0.0102 c 0,-9.46603 7.7552,-17.22121 17.2315,-17.22121 z"
           id="path1-0-6"
           style="fill:#ffffff;fill-opacity:1;stroke:none;stroke-width:1.02446;stroke-opacity:1" /></g></g></g></svg>
