<?xml version="1.0" encoding="UTF-8" standalone="no"?>
<!-- Created with Inkscape (http://www.inkscape.org/) -->

<svg
   width="19.741737mm"
   height="19.741747mm"
   viewBox="0 0 19.741737 19.741747"
   version="1.1"
   id="svg1"
   xml:space="preserve"
   xmlns:inkscape="http://www.inkscape.org/namespaces/inkscape"
   xmlns:sodipodi="http://sodipodi.sourceforge.net/DTD/sodipodi-0.dtd"
   xmlns="http://www.w3.org/2000/svg"
   xmlns:svg="http://www.w3.org/2000/svg"><sodipodi:namedview
     id="namedview1"
     pagecolor="#ffffff"
     bordercolor="#666666"
     borderopacity="1.0"
     inkscape:showpageshadow="2"
     inkscape:pageopacity="0.0"
     inkscape:pagecheckerboard="0"
     inkscape:deskcolor="#d1d1d1"
     inkscape:document-units="mm" /><defs
     id="defs1"><style
       id="style1">.cls-1{fill-rule:evenodd;}</style></defs><g
     inkscape:label="Ebene 1"
     inkscape:groupmode="layer"
     id="layer1"
     transform="translate(-89.335451,-102.70934)"><g
       id="g12"><rect
         style="fill:none;fill-opacity:0;stroke:none;stroke-width:0.102011;stroke-linecap:round;stroke-linejoin:round;stroke-opacity:0"
         id="bg-1-0"
         width="19.741739"
         height="19.741739"
         x="89.335457"
         y="102.70934" /><g
         style="clip-rule:evenodd;fill:#ffffff;fill-opacity:1;fill-rule:evenodd;stroke:none;stroke-opacity:1;image-rendering:optimizeQuality;shape-rendering:geometricPrecision;text-rendering:geometricPrecision"
         id="fg-2-3"
         transform="matrix(0.04759727,0,0,0.0327611,95.255756,104.17877)"><path
           d="M 41.08,261.18 C 40.1,300.72 31.11,376.99 21.22,402.54 H 144.78 C 133.27,373.56 123.75,297.8 122.42,261.18 Z m 9.8,-71.77 h 64.24 c 4.21,0 7.65,3.48 7.65,7.65 0,4.16 -3.48,7.64 -7.65,7.64 H 50.88 c -4.17,0 -7.65,-3.44 -7.65,-7.64 0,-4.21 3.44,-7.65 7.65,-7.65 z m -22.45,47.84 h 109.14 c 4.21,0 7.65,3.46 7.65,7.65 0,4.19 -3.46,7.64 -7.65,7.64 H 28.43 c -4.19,0 -7.65,-3.43 -7.65,-7.64 0,-4.21 3.44,-7.65 7.65,-7.65 z m 11.22,-23.92 h 86.7 c 4.2,0 7.64,3.47 7.64,7.65 0,4.17 -3.47,7.64 -7.64,7.64 h -86.7 c -4.17,0 -7.64,-3.44 -7.64,-7.64 0,-4.21 3.44,-7.65 7.64,-7.65 z M 26.68,411.18 h 112.64 c 5.16,0 9.38,4.24 9.38,9.37 0,5.13 -4.24,9.37 -9.38,9.37 H 26.68 c -5.14,0 -9.38,-4.21 -9.38,-9.37 0,-5.16 4.22,-9.37 9.38,-9.37 z M 9.69,493.5 h 146.62 c 5.33,0 9.69,4.36 9.69,9.69 0,5.34 -4.36,9.7 -9.69,9.7 H 9.69 c -5.33,0 -9.69,-4.36 -9.69,-9.7 0,-5.33 4.36,-9.69 9.69,-9.69 z m 127.4,-54.92 c 7.85,13.77 20.69,27.71 18.61,46.26 H 10.28 C 8.19,466.29 22.77,452.35 30.61,438.58 Z M 69.71,2.74 c 5.77,-3.34 19.74,-3.95 26.58,0 L 89.36,34 120.62,27.07 c 3.34,5.77 3.95,19.74 0,26.58 l -31.26,-6.93 6.93,31.26 c -6.84,3.95 -20.81,3.34 -26.58,0 l 6.93,-31.26 -31.26,6.93 c -3.95,-6.84 -3.34,-20.81 0,-26.58 L 76.64,34 Z m -6.63,84.53 h 39.84 c 0.83,0 1.51,0.68 1.51,1.51 v 10.17 h 22.86 c 5.53,-0.09 9.35,2.2 11.29,5.67 6.48,11.61 -8.85,23.4 -13.55,35.59 -3.98,10.35 -4.09,18.84 -4.09,29.54 v 7.88 c 0,1.73 -1.42,3.15 -3.15,3.15 H 48.21 c -1.73,0 -3.15,-1.42 -3.15,-3.15 v -7.88 c 0,-10.7 -0.1,-19.19 -4.09,-29.54 -4.7,-12.2 -20.03,-23.98 -13.55,-35.59 1.94,-3.47 5.76,-5.76 11.29,-5.67 H 61.57 V 88.78 c 0,-0.83 0.68,-1.51 1.51,-1.51 z"
           id="path1-08"
           style="fill:#ffffff;fill-opacity:1;stroke:none;stroke-opacity:1" /></g></g></g></svg>
