<?xml version="1.0" encoding="UTF-8" standalone="no"?>
<!-- Created with Inkscape (http://www.inkscape.org/) -->

<svg
   width="19.741737mm"
   height="19.741747mm"
   viewBox="0 0 19.741737 19.741747"
   version="1.1"
   id="svg1"
   xml:space="preserve"
   xmlns:inkscape="http://www.inkscape.org/namespaces/inkscape"
   xmlns:sodipodi="http://sodipodi.sourceforge.net/DTD/sodipodi-0.dtd"
   xmlns="http://www.w3.org/2000/svg"
   xmlns:svg="http://www.w3.org/2000/svg"><sodipodi:namedview
     id="namedview1"
     pagecolor="#ffffff"
     bordercolor="#666666"
     borderopacity="1.0"
     inkscape:showpageshadow="2"
     inkscape:pageopacity="0.0"
     inkscape:pagecheckerboard="0"
     inkscape:deskcolor="#d1d1d1"
     inkscape:document-units="mm" /><defs
     id="defs1"><style
       id="style1">.cls-1{fill-rule:evenodd;}</style></defs><g
     inkscape:label="Ebene 1"
     inkscape:groupmode="layer"
     id="layer1"
     transform="translate(-89.335451,-129.1564)"><g
       id="g15"><rect
         style="fill:none;fill-opacity:0;stroke:none;stroke-width:0.102011;stroke-linecap:round;stroke-linejoin:round;stroke-opacity:0"
         id="bg-1-9-1"
         width="19.741739"
         height="19.741739"
         x="89.335457"
         y="129.1564" /><path
         class="cls-1"
         d="m 97.458179,135.96228 a 2.1719193,2.1719193 0 1 1 3.495251,0 z m 3.723591,0.41208 a 0.75406488,0.75406488 0 0 1 0.65529,0.74345 v 0 a 0.75512694,0.75512694 0 0 1 -0.70203,0.74981 h -3.860596 a 0.75406488,0.75406488 0 0 1 -0.700954,-0.74981 v 0 a 0.75406488,0.75406488 0 0 1 0.655284,-0.74345 z m -0.7923,1.90641 c 0.0966,1.54742 0.63723,2.7688 1.99137,3.38267 v 0.5682 h -6.349016 v -0.5682 c 1.274476,-0.40358 1.877728,-1.5931 1.989242,-3.38267 z m 2.02429,4.35977 a 1.5283089,1.5283089 0 0 1 1.34564,1.51131 v 0.0234 h -9.106132 v -0.0234 a 1.5283089,1.5283089 0 0 1 1.346698,-1.51131 h 0.03286 6.347954 z m 1.32864,1.9457 a 1.2744759,1.2744759 0 0 1 1.00684,0.96754 H 93.663424 a 1.2744759,1.2744759 0 0 1 1.005777,-0.96754 z"
         id="fg-5-7"
         style="fill:#ffffff;fill-opacity:1;fill-rule:evenodd;stroke:none;stroke-width:0.106206;stroke-opacity:1" /></g></g></svg>
